<svg width="18" height="19" viewBox="0 0 18 19" fill="none" xmlns="http://www.w3.org/2000/svg">
<path d="M15.9891 15.3535L11.424 10.7885C12.1324 9.87269 12.5156 8.75296 12.5156 7.57523C12.5156 6.16546 11.9654 4.84359 10.9705 3.84691C9.97559 2.85023 8.6502 2.30179 7.24219 2.30179C5.83418 2.30179 4.50879 2.85198 3.51387 3.84691C2.51719 4.84183 1.96875 6.16546 1.96875 7.57523C1.96875 8.98323 2.51895 10.3086 3.51387 11.3035C4.50879 12.3002 5.83242 12.8487 7.24219 12.8487C8.41992 12.8487 9.53789 12.4655 10.4537 11.7588L15.0188 16.3221C15.0321 16.3355 15.048 16.3461 15.0655 16.3534C15.083 16.3606 15.1018 16.3643 15.1207 16.3643C15.1396 16.3643 15.1584 16.3606 15.1759 16.3534C15.1934 16.3461 15.2093 16.3355 15.2227 16.3221L15.9891 15.5575C16.0025 15.5441 16.0131 15.5282 16.0203 15.5107C16.0276 15.4932 16.0313 15.4744 16.0313 15.4555C16.0313 15.4366 16.0276 15.4178 16.0203 15.4003C16.0131 15.3828 16.0025 15.3669 15.9891 15.3535V15.3535ZM10.0266 10.3596C9.28125 11.1032 8.29336 11.5127 7.24219 11.5127C6.19102 11.5127 5.20313 11.1032 4.45781 10.3596C3.71426 9.61429 3.30469 8.6264 3.30469 7.57523C3.30469 6.52405 3.71426 5.53441 4.45781 4.79085C5.20313 4.0473 6.19102 3.63773 7.24219 3.63773C8.29336 3.63773 9.28301 4.04554 10.0266 4.79085C10.7701 5.53616 11.1797 6.52405 11.1797 7.57523C11.1797 8.6264 10.7701 9.61605 10.0266 10.3596Z" fill="#8C8C8C"/>
</svg>
